<?xml version="1.0" encoding="UTF-8" standalone="no"?>
<svg
   xmlns:dc="http://purl.org/dc/elements/1.1/"
   xmlns:cc="http://creativecommons.org/ns#"
   xmlns:rdf="http://www.w3.org/1999/02/22-rdf-syntax-ns#"
   xmlns:svg="http://www.w3.org/2000/svg"
   xmlns="http://www.w3.org/2000/svg"
   version="1.1"
   id="svg3536"
   viewBox="0 0 89.999999 35.000001"
   height="35"
   width="90">
  <defs
     id="defs3538" />
  <metadata
     id="metadata3541">
    <rdf:RDF>
      <cc:Work
         rdf:about="">
        <dc:format>image/svg+xml</dc:format>
        <dc:type
           rdf:resource="http://purl.org/dc/dcmitype/StillImage" />
        <dc:title></dc:title>
      </cc:Work>
    </rdf:RDF>
  </metadata>
  <g
     transform="translate(0,-1017.3622)"
     id="layer1">
    <path
       id="path3428"
       class="g1_2"
       d="m 0.41615291,1034.5985 0,-12.6288 7.87916149,0 c 3.3847116,0 4.1060416,1.3323 4.1060416,5.2458 l 0,7.383 z m 7.85141799,-7.1332 c 0,-1.9152 -0.1387176,-2.4703 -2.0530209,-2.4703 l -1.6923552,0 0,6.6059 3.7453761,0 z"
       style="display:block;fill:#ffffff;fill-opacity:1" />
    <path
       id="path3430"
       class="g1_2"
       d="m 21.112824,1034.5985 -7.518496,0 0,-2.9976 2.469173,0 -2.524661,-9.6312 4.383478,0 1.969791,9.659 c 0.499383,0 1.498149,0.056 1.498149,-2.4425 l 0,-7.2165 4.106043,0 0,7.4663 c 0,3.858 -1.303946,5.1625 -4.383477,5.1625 z"
       style="display:block;fill:#ffffff;fill-opacity:1" />
    <path
       id="path3432"
       class="g1_2"
       d="m 50.853885,1034.5985 0,-7.0777 c 0,-2.0539 -0.360667,-2.5258 -1.886561,-2.5258 l -5.049321,0 0,-3.0253 7.546239,0 c 2.025277,0 3.495684,1.5543 3.495684,4.552 l 0,8.0768 z m -6.935882,-7.0499 4.106042,0 0,7.0499 -4.106042,0 0,-7.0499 z"
       style="display:block;fill:#ffffff;fill-opacity:1" />
    <path
       id="path3434"
       class="g1_2"
       d="m 66.639951,1034.5985 0,-2.9976 3.440197,0 c 1.41492,0 2.413687,-1.2767 2.413687,-3.2751 0,-1.8874 -0.998767,-3.3308 -2.413687,-3.3308 l -3.384711,0 0,-3.0253 5.548706,0 c 2.385944,0 4.41122,2.3037 4.41122,5.1071 0,4.0801 -2.663378,4.0245 -2.552403,4.5241 0.02774,0.1665 0.693588,0 1.137484,0 l 2.136251,0 0,2.9976 z"
       style="display:block;fill:#ffffff;fill-opacity:1" />
    <path
       id="path3436"
       class="g1_2"
       d="m 86.171393,1034.9871 c -1.88656,0 -2.774352,-0.3886 -2.774352,-0.3886 l 0,-2.5535 c 0,0 2.413687,0.9437 2.413687,-2.2204 l 0,-4.8296 -7.823675,0 0,-3.0253 12.012947,0 0,7.2442 c 0,3.7193 -1.997534,5.7732 -3.828607,5.7732 m -7.851418,-7.3275 4.106043,0 0,11.0746 -4.106043,0 0,-11.0746 z"
       style="display:block;fill:#ffffff;fill-opacity:1" />
    <path
       id="path3438"
       class="g1_2"
       d="m 34.845869,1021.9697 -2.996301,0 c -1.331688,0 -1.331688,-1.4988 -1.331688,-4.2189 0,-0.1388 0,-0.2775 0,-0.3886 l -4.106043,0 c 0,0.1111 0,0.2498 0,0.3886 l 0,4.2189 c 0,2.0816 0.915537,3.0253 1.88656,3.0253 l 3.051788,0 c 1.775586,0 1.276203,1.8597 1.165229,2.3593 l -1.664612,7.2442 4.272503,0 1.831072,-8.1601 c 0.110974,-0.4441 0.887794,-4.4687 -2.108508,-4.4687 z"
       style="display:block;fill:#ffffff;fill-opacity:1" />
    <path
       id="path3440"
       class="g1_2"
       d="m 63.504932,1021.9697 -2.9963,0 c -1.359434,0 -1.331691,-1.4988 -1.331691,-4.2189 0,-0.1388 0,-0.2775 0,-0.3886 l -4.106041,0 c 0,0.1111 0,0.2498 0,0.3886 l 0,4.2189 c 0,2.0816 0.887793,3.0253 1.88656,3.0253 l 3.024044,0 c 1.775586,0 1.303946,1.8597 1.192973,2.3593 l -1.664612,7.2442 4.272502,0 1.831073,-8.1601 c 0.110974,-0.4441 0.887793,-4.4687 -2.108508,-4.4687 z"
       style="display:block;fill:#ffffff;fill-opacity:1" />
    <path
       id="path3444"
       class="g1_2"
       d="m 0,1044.8126 2.1362515,7.3831 2.1639951,0 0.7490752,-2.5813 c 0.1942047,-0.6939 0.3329223,-1.3878 0.4716401,-2.3037 l 0.027743,0 c 0.1664612,0.9159 0.2774353,1.582 0.4716399,2.3037 l 0.6935882,2.5813 2.1639951,0 2.2749699,-7.3831 -2.2472263,0 -0.6381012,2.9421 c -0.1664612,0.8327 -0.3329223,1.6654 -0.4438964,2.5259 l -0.027743,0 c -0.1387176,-0.8605 -0.3329223,-1.6932 -0.527127,-2.5259 l -0.7490753,-2.9421 -1.8033292,0 -0.8045622,3.0255 c -0.1664612,0.7493 -0.3884094,1.582 -0.5271271,2.4425 l -0.027744,0 c -0.1387176,-0.8605 -0.2774353,-1.6932 -0.4438964,-2.4425 l -0.582614,-3.0255 z m 11.652281,0 2.136251,7.3831 2.163995,0 0.749077,-2.5813 c 0.194203,-0.6939 0.332921,-1.3878 0.471639,-2.3037 l 0.02775,0 c 0.166462,0.9159 0.305179,1.582 0.471641,2.3037 l 0.693587,2.5813 2.163995,0 2.27497,-7.3831 -2.247226,0 -0.638101,2.9421 c -0.166461,0.8327 -0.305179,1.6654 -0.416153,2.5259 l -0.02775,0 c -0.166461,-0.8605 -0.360666,-1.6932 -0.554871,-2.5259 l -0.749075,-2.9421 -1.80333,0 -0.776818,3.0255 c -0.194205,0.7493 -0.416153,1.582 -0.55487,2.4425 l -0.02775,0 c -0.138718,-0.8605 -0.277435,-1.6932 -0.416153,-2.4425 l -0.610357,-3.0255 z m 11.652282,0 2.136251,7.3831 2.163995,0 0.749075,-2.5813 c 0.194205,-0.6939 0.360666,-1.3878 0.499384,-2.3037 l 0.02775,0 c 0.138717,0.9159 0.277435,1.582 0.471638,2.3037 l 0.693589,2.5813 2.163996,0 2.247225,-7.3831 -2.247225,0 -0.638102,2.9421 c -0.166461,0.8327 -0.305178,1.6654 -0.416153,2.5259 l -0.02775,0 c -0.166461,-0.8605 -0.360666,-1.6932 -0.55487,-2.5259 l -0.721332,-2.9421 -1.831073,0 -0.77682,3.0255 c -0.194204,0.7493 -0.388408,1.582 -0.55487,2.4425 l -0.02774,0 c -0.110975,-0.8605 -0.277437,-1.6932 -0.416154,-2.4425 l -0.582614,-3.0255 z m 12.179407,7.5219 c 0.638101,0 1.054254,-0.4441 1.054254,-1.0825 0,-0.6384 -0.416153,-1.0825 -1.054254,-1.0825 -0.610357,0 -1.054254,0.4718 -1.054254,1.0825 0,0.6384 0.443897,1.0825 1.026511,1.0825 z m 4.744144,-10.8803 -2.302714,0 0,10.7415 2.302714,0 0,-2.3037 0.582613,-0.7218 1.80333,3.0255 2.829839,0 -3.024044,-4.3855 2.635636,-2.9976 -2.774353,0 -1.49815,2.2205 c -0.166462,0.2776 -0.360667,0.5829 -0.527128,0.8882 l -0.02775,0 z m 12.207151,6.3839 c 0,-1.7487 -0.804563,-3.192 -3.273735,-3.192 -1.331691,0 -2.358201,0.3609 -2.857585,0.6384 l 0.416153,1.4988 c 0.471641,-0.3053 1.276203,-0.5551 2.053022,-0.5551 1.109741,0 1.331689,0.5551 1.331689,0.9437 l 0,0.111 c -2.607891,-0.027 -4.327991,0.8882 -4.327991,2.831 0,1.1658 0.887794,2.2483 2.385944,2.2483 0.860049,0 1.636868,-0.3053 2.108508,-0.8882 l 0.05548,0 0.138717,0.7217 2.053022,0 c -0.05549,-0.3886 -0.08323,-1.0825 -0.08323,-1.7764 z m -2.247225,1.6653 c 0,0.1387 -0.02775,0.2775 -0.05548,0.4163 -0.138718,0.4718 -0.610358,0.8327 -1.192972,0.8327 -0.499383,0 -0.915536,-0.2776 -0.915536,-0.8604 0,-0.916 0.943279,-1.1936 2.163995,-1.1658 z m 4.189273,0.4996 c 0,0.8327 -0.02775,1.7208 -0.05549,2.1927 l 1.969791,0 0.08323,-1.027 0.02775,0 c 0.527126,0.8882 1.359432,1.1935 2.219481,1.1935 1.692355,0 3.384711,-1.3323 3.384711,-3.969 0.02774,-2.276 -1.276203,-3.7471 -3.051788,-3.7471 -1.02651,0 -1.803329,0.4163 -2.247225,1.0547 l -0.02775,0 0,-4.2466 -2.302712,0 z m 2.302712,-2.0262 c 0,-0.1666 0.02775,-0.3054 0.05549,-0.4163 0.138717,-0.6661 0.721332,-1.138 1.331689,-1.138 1.081997,0 1.609125,0.8882 1.609125,2.0539 0,1.3323 -0.610358,2.0817 -1.609125,2.0817 -0.665844,0 -1.192972,-0.4719 -1.331689,-1.0825 -0.02774,-0.1387 -0.05549,-0.2498 -0.05549,-0.4163 z m 6.935881,4.3577 c 0.638102,0 1.054254,-0.4441 1.054254,-1.0825 0,-0.6384 -0.416152,-1.0825 -1.026511,-1.0825 -0.6381,0 -1.054253,0.4718 -1.054253,1.0825 0,0.6384 0.416153,1.0825 1.02651,1.0825 z m 7.740444,-2.0262 c -0.360666,0.1665 -0.776819,0.2498 -1.331689,0.2498 -1.10974,0 -2.025277,-0.7217 -2.025277,-2.0817 0,-1.1935 0.776819,-2.0539 1.997534,-2.0539 0.582613,0 0.998766,0.111 1.276202,0.222 l 0.360666,-1.7209 c -0.47164,-0.1665 -1.137485,-0.2775 -1.747842,-0.2775 -2.74661,0 -4.24476,1.7764 -4.24476,3.9413 0,2.3315 1.525894,3.7748 3.911837,3.7748 0.887793,0 1.664612,-0.1665 2.080765,-0.333 z m 4.827374,-5.6622 c -2.385943,0 -3.967324,1.5265 -3.967324,3.9136 0,2.387 1.664611,3.8025 3.828607,3.8025 1.997533,0 3.911837,-1.2213 3.911837,-3.9413 0,-2.2204 -1.525895,-3.7748 -3.77312,-3.7748 m -0.08323,1.6376 c 1.054254,0 1.470407,1.1102 1.470407,2.2205 0,1.3322 -0.55487,2.2204 -1.470407,2.2204 -0.971023,0 -1.49815,-0.9437 -1.49815,-2.2204 0,-1.0825 0.416153,-2.2205 1.49815,-2.2205 m 5.465474,6.0508 c 0.638103,0 1.054255,-0.4441 1.054255,-1.0825 0,-0.6384 -0.416152,-1.0825 -1.054255,-1.0825 -0.610356,0 -1.054253,0.4718 -1.054253,1.0825 0,0.6384 0.443897,1.0825 1.02651,1.0825 z m 4.744144,-7.5219 -2.302712,0 0,7.3831 2.302712,0 0,-7.3831 z m -1.137485,-3.2196 c -0.749074,0 -1.220715,0.4996 -1.220715,1.1657 0,0.6384 0.471641,1.138 1.192973,1.138 0.749074,0 1.248458,-0.4996 1.248458,-1.138 -0.02775,-0.6661 -0.499384,-1.1657 -1.220716,-1.1657 m 2.524661,10.6027 2.302713,0 0,-10.7415 -2.302713,0 0,10.7415 z"
       style="display:block;fill:#ffffff;fill-opacity:1" />
  </g>
</svg>
